<svg width="68" height="32" viewBox="0 0 68 32" fill="none" xmlns="http://www.w3.org/2000/svg">
<path d="M7.866 4.876V7.452C9.752 7.751 11.339 8.809 12.121 10.58L10.166 11.592C9.545 10.327 8.372 9.545 6.67 9.545C5.106 9.545 3.841 10.465 3.841 11.776C3.841 13.432 5.474 13.8 7.337 14.168C9.637 14.628 12.443 15.387 12.443 18.653C12.443 21.16 10.373 22.977 7.59 23.23V25.714H5.336V23.092C3.45 22.724 1.955 21.643 1.219 19.964L3.197 18.998C3.795 20.332 5.106 21.045 6.923 21.045C8.717 21.045 10.097 20.194 10.097 18.676C10.097 16.974 8.533 16.675 6.716 16.33C4.393 15.87 1.518 15.111 1.518 11.845C1.518 9.637 3.243 7.889 5.612 7.452V4.876H7.866ZM20.6937 21.068C22.7867 21.068 23.9367 19.251 23.9367 17.158V11.73H26.2137V17.434C26.2137 20.7 24.2357 23.276 20.6937 23.276C17.1977 23.276 15.2197 20.677 15.2197 17.411V11.73H17.4967V17.181C17.4967 19.251 18.6237 21.068 20.6937 21.068ZM30.9817 9.499C30.1537 9.499 29.4867 8.832 29.4867 8.004C29.4867 7.176 30.1537 6.486 30.9817 6.486C31.8097 6.486 32.4537 7.176 32.4537 8.004C32.4537 8.832 31.8097 9.499 30.9817 9.499ZM29.8547 11.73H32.1317V23H29.8547V11.73ZM41.844 23.276C38.44 23.276 35.841 20.723 35.841 17.388V6.555H38.118V13.133C39.038 12.121 40.418 11.454 41.936 11.454C45.363 11.454 47.824 13.961 47.824 17.388C47.824 20.631 45.248 23.276 41.844 23.276ZM41.844 21.137C43.937 21.137 45.547 19.435 45.547 17.365C45.547 15.318 43.937 13.616 41.844 13.616C39.728 13.616 38.118 15.318 38.118 17.365C38.118 19.435 39.728 21.137 41.844 21.137ZM51.9827 9.499C51.1547 9.499 50.4877 8.832 50.4877 8.004C50.4877 7.176 51.1547 6.486 51.9827 6.486C52.8107 6.486 53.4547 7.176 53.4547 8.004C53.4547 8.832 52.8107 9.499 51.9827 9.499ZM50.8557 11.73H53.1327V23H50.8557V11.73ZM65.881 23H58.659C57.095 23 56.267 22.034 56.267 20.976C56.267 20.056 56.612 19.458 57.417 18.906L63.351 14.536C63.512 14.398 63.604 14.26 63.604 14.076C63.604 13.823 63.397 13.708 63.121 13.708H56.52V11.73H63.581C65.122 11.73 65.95 12.719 65.95 13.754C65.95 14.674 65.605 15.272 64.823 15.847L58.889 20.217C58.705 20.332 58.613 20.493 58.613 20.677C58.613 20.93 58.82 21.045 59.073 21.045H65.881V23Z" fill="#010725"/>
<path d="M31.3925 4.06555C31.3749 4.04499 31.3531 4.02849 31.3285 4.01717C31.3039 4.00586 31.2771 4 31.2501 4C31.223 4 31.1963 4.00586 31.1717 4.01717C31.1471 4.02849 31.1253 4.04499 31.1077 4.06555C30.613 4.64414 29 6.64445 29 8.12617C29 9.50695 29.8694 10.3762 31.25 10.3762C32.6306 10.3762 33.5 9.50695 33.5 8.12617C33.5 6.64445 31.887 4.64414 31.3925 4.06555ZM31.5 9.56367C31.47 9.56374 31.4404 9.55659 31.4137 9.54283C31.387 9.52907 31.364 9.5091 31.3466 9.48459C31.3292 9.46009 31.318 9.43178 31.3139 9.40203C31.3097 9.37229 31.3128 9.34199 31.3228 9.31367C31.3356 9.27673 31.3597 9.24476 31.3917 9.22232C31.4237 9.19987 31.462 9.1881 31.5011 9.18867C31.7493 9.18814 31.9871 9.08931 32.1626 8.91381C32.3381 8.73832 32.437 8.50045 32.4375 8.25227C32.4369 8.21318 32.4487 8.1749 32.4711 8.14289C32.4936 8.11089 32.5256 8.08677 32.5625 8.07399C32.5908 8.06397 32.6211 8.06091 32.6509 8.06505C32.6806 8.0692 32.7089 8.08042 32.7334 8.09779C32.7579 8.11515 32.7779 8.13815 32.7917 8.16484C32.8054 8.19153 32.8126 8.22114 32.8125 8.25117C32.8121 8.59915 32.6737 8.93278 32.4277 9.17884C32.1816 9.4249 31.848 9.5633 31.5 9.56367Z" fill="#2196F3"/>
</svg>
