<svg width="68" height="32" viewBox="0 0 68 32" fill="none" xmlns="http://www.w3.org/2000/svg">
<path d="M7.866 4.876V7.452C9.752 7.751 11.339 8.809 12.121 10.58L10.166 11.592C9.545 10.327 8.372 9.545 6.67 9.545C5.106 9.545 3.841 10.465 3.841 11.776C3.841 13.432 5.474 13.8 7.337 14.168C9.637 14.628 12.443 15.387 12.443 18.653C12.443 21.16 10.373 22.977 7.59 23.23V25.714H5.336V23.092C3.45 22.724 1.955 21.643 1.219 19.964L3.197 18.998C3.795 20.332 5.106 21.045 6.923 21.045C8.717 21.045 10.097 20.194 10.097 18.676C10.097 16.974 8.533 16.675 6.716 16.33C4.393 15.87 1.518 15.111 1.518 11.845C1.518 9.637 3.243 7.889 5.612 7.452V4.876H7.866ZM20.6937 21.068C22.7867 21.068 23.9367 19.251 23.9367 17.158V11.73H26.2137V17.434C26.2137 20.7 24.2357 23.276 20.6937 23.276C17.1977 23.276 15.2197 20.677 15.2197 17.411V11.73H17.4967V17.181C17.4967 19.251 18.6237 21.068 20.6937 21.068ZM30.9817 9.499C30.1537 9.499 29.4867 8.832 29.4867 8.004C29.4867 7.176 30.1537 6.486 30.9817 6.486C31.8097 6.486 32.4537 7.176 32.4537 8.004C32.4537 8.832 31.8097 9.499 30.9817 9.499ZM29.8547 11.73H32.1317V23H29.8547V11.73ZM41.844 23.276C38.44 23.276 35.841 20.723 35.841 17.388V6.555H38.118V13.133C39.038 12.121 40.418 11.454 41.936 11.454C45.363 11.454 47.824 13.961 47.824 17.388C47.824 20.631 45.248 23.276 41.844 23.276ZM41.844 21.137C43.937 21.137 45.547 19.435 45.547 17.365C45.547 15.318 43.937 13.616 41.844 13.616C39.728 13.616 38.118 15.318 38.118 17.365C38.118 19.435 39.728 21.137 41.844 21.137ZM51.9827 9.499C51.1547 9.499 50.4877 8.832 50.4877 8.004C50.4877 7.176 51.1547 6.486 51.9827 6.486C52.8107 6.486 53.4547 7.176 53.4547 8.004C53.4547 8.832 52.8107 9.499 51.9827 9.499ZM50.8557 11.73H53.1327V23H50.8557V11.73ZM65.881 23H58.659C57.095 23 56.267 22.034 56.267 20.976C56.267 20.056 56.612 19.458 57.417 18.906L63.351 14.536C63.512 14.398 63.604 14.26 63.604 14.076C63.604 13.823 63.397 13.708 63.121 13.708H56.52V11.73H63.581C65.122 11.73 65.95 12.719 65.95 13.754C65.95 14.674 65.605 15.272 64.823 15.847L58.889 20.217C58.705 20.332 58.613 20.493 58.613 20.677C58.613 20.93 58.82 21.045 59.073 21.045H65.881V23Z" fill="white"/>
<path d="M31.0916 8.66667C31.1583 8.66111 31.2153 8.63467 31.2626 8.58733C31.31 8.54 31.3335 8.48311 31.3333 8.41667C31.3333 8.33889 31.3083 8.27644 31.2583 8.22933C31.2083 8.18222 31.1444 8.16133 31.0666 8.16667C30.8389 8.18333 30.5972 8.12089 30.3416 7.97933C30.0861 7.83778 29.925 7.58078 29.8583 7.20833C29.8472 7.14722 29.8181 7.09722 29.771 7.05833C29.7239 7.01944 29.6696 7 29.6083 7C29.5305 7 29.4666 7.02922 29.4166 7.08767C29.3666 7.14611 29.35 7.21411 29.3666 7.29167C29.4611 7.79722 29.6833 8.15833 30.0333 8.375C30.3833 8.59167 30.7361 8.68889 31.0916 8.66667ZM31 9.66667C30.2389 9.66667 29.6042 9.40556 29.096 8.88333C28.5878 8.36111 28.3335 7.71111 28.3333 6.93333C28.3333 6.37778 28.5542 5.77367 28.996 5.121C29.4378 4.46833 30.1058 3.76133 31 3C31.8944 3.76111 32.5625 4.46811 33.0043 5.121C33.4461 5.77389 33.6669 6.378 33.6666 6.93333C33.6666 7.71111 33.4125 8.36111 32.9043 8.88333C32.3961 9.40556 31.7613 9.66667 31 9.66667Z" fill="#3B82F6"/>
</svg>
